<svg version="1" xmlns="http://www.w3.org/2000/svg" width="682.667" height="682.667" viewBox="0 0 512.000000 512.000000"><path d="M246.5 1.4C235.8 4.7 228 12.1 224 22.7c-1.9 5.2-2 7.8-2.3 59.6l-.2 54.2-5.9.1c-9.7.3-14.5 2.2-20.2 7.8-7.3 7.3-7.7 9.8-7.7 39.5v24.7l-3.9 1.9c-8.2 4-18.2 17-20.4 26.5-1.1 4.9-1.1 5.3-1.3 22.6l-.1 15.5-3.7 1.5c-7.9 3.3-30 14.8-40.9 21.3-6.3 3.8-11.4 6.7-11.4 6.5 0-.3 1-2.4 2.3-4.7 1.9-3.6 2.2-5.7 2.2-14.8 0-10-.2-10.8-3.4-17.2-4.1-8.1-11.2-15.6-22.4-23.7-17.6-12.8-20-14.7-25.5-20.5-7.6-7.9-10.9-12.3-17.2-22.8-5.8-9.8-8.9-12-14.9-10.6-6.1 1.4-7.9 4.2-10.1 16.4-1.1 6.1-3.8 16.4-6 23-4.7 13.8-7.6 24.8-8.6 32-.3 2.7-.8 5.4-1.1 5.8-.3.5-.7 7.2-.9 15.1-.5 15.3.5 20.2 5.2 27.7 2.7 4.3 9.3 9.8 14.9 12.4 6.3 2.9 15.9 2.6 21.9-.8 5.5-3.1 4.3-3.8 12 6.8 2.4 3.3 6 9 8 12.6l3.6 6.6-1.6 3.9c-6.4 15.1-6.1 34.6.7 53.1L67 410h-2.3c-3 .1-10.6 3.6-13.6 6.3-6.7 6.2-9.6 15.5-7.6 24.4 2.9 12.7 13.7 20.7 26.7 19.9 9.6-.7 19.5-8.3 22-17.1.6-2.2 1.2-4.1 1.3-4.3.1-.1 3.9 1.6 8.5 3.9 17.6 8.7 41.7 15.4 57.3 15.8 2.7.1 2.7.2 2.7 6.5 0 19.9 8.5 34.4 25 42.4l7.5 3.7 57.5.3c40.5.2 59.3 0 63.5-.8 16-3.1 29.8-16.7 33.4-33 1.4-6 1.3-233 0-239.1-2.2-10.2-11-22.7-19.4-27.7-2-1.2-2-1.2.5-3.3 1.4-1.1 4.6-4.1 7.1-6.5 2.6-2.4 4.9-4.4 5.2-4.4.2 0 1.6 1.9 3.1 4.3 13 20.5 44.7 12.8 46.9-11.5.5-5.5-1.8-13.2-5.5-18-1.4-1.9-5.2-4.8-8.4-6.6-3.3-1.7-5.4-3.2-4.7-3.2.6 0 4.4-1.9 8.5-4.3 6.9-4.1 23.6-11.4 24.1-10.6.2.2.8 3 1.5 6.3 2.9 14.8 17.3 25.7 33.9 25.7 15.8 0 24.6-8.5 49.3-48.3 2.5-3.9 7.7-11.3 11.6-16.3 8.7-11.2 8.6-11 9.1-15 1-7.6-4.6-12.6-14.6-13.1-5.9-.2-13.8-1.1-19.6-2-5-.8-8.6-1.8-21.3-5.8-21.4-6.9-25.9-7.9-36.2-8-8.9-.1-10 .1-16.2 3.2-12.4 6.1-20.3 18.5-19.2 30.1.6 6.2 4.2 14.6 8.5 20.1 2.2 2.8 4.4 5 4.9 5 2.6 0 .6 2.3-3.2 3.8-2.4.9-8.2 3.6-13 5.9-4.9 2.3-8.8 3.9-8.8 3.4s.5-3.3 1.1-6.2c1.4-7.5 1.4-23-.1-31.9-2.7-16.1-13.5-42-23.5-56.4-1.2-1.6-.9-2.4 2.1-6.2 13.1-17.2.2-42-21.3-40.9-18.2 1-29.4 20.3-21.3 37.1 3.4 6.8 12.9 13.3 19.7 13.4 2.4.1 3.5 1.2 7.1 6.9 8.4 13.6 16.1 30.7 19.1 42.6 7.6 30.4-3.6 64.1-29.1 87.3l-2.5 2.2-.1-16.4c0-14.5-.3-17-2.2-21.3-4.7-10.7-13-15.6-26.5-15.7h-5L290 81l-.5-55.5-2.7-5.6C280.9 8.1 270.4 1 257.6.5c-3.9-.2-8.9.2-11.1.9zM260.9 18c4.1 1.1 9.4 6.1 11 10.3.7 1.9 1.1 20.8 1.1 55.6v52.7h-34V83.9c0-34.9.4-53.7 1.1-55.6 3.1-8.3 12-12.7 20.8-10.3zm75.4.2c5.3 2.8 6.4 9.2 2.2 13.3-6.6 6.7-17.3-1.2-12.9-9.7 2.2-4.3 6.7-5.8 10.7-3.6zm97.6 71.4c3.6.8 9.1 2.3 12.1 3.4 3 1 8.8 2.9 12.9 4.1l7.3 2.2-6.4 2.2c-9.8 3.3-25.2 11.2-33.5 17.2-7.2 5.2-7.6 5.3-9.9 3.8-7.9-5.1-15.9-16.5-14.9-21.3 1-5.2 4.7-9.8 10-12.3 4.5-2.2 10.5-2 22.4.7zm45.2 28.5c-1.6 2.4-7.2 10.9-12.4 18.9-10.5 16.1-13.6 19.8-18.7 22.9-4.6 2.8-9.5 2.6-15.6-.4-7.2-3.6-8.9-7.7-7-16.2 1.2-5.3 18.7-17.1 35.1-23.7 6.8-2.7 20.7-6.7 21.3-6.1.2.2-1 2.2-2.7 4.6zm-174.4 38.3c1.8 2.2 2.3 3.9 2.3 8.5v5.8l-51 .1-51 .1v-5.8c0-6.9 1.9-9.9 6.8-10.9 1.8-.4 22.9-.6 46.9-.6l43.7.2 2.3 2.6zm66.3 24.3c3.5 2.4 4 3.3 4 7.5 0 4.5-3.6 7.8-8.6 7.8-8.4 0-10.9-11.4-3.3-15.2 4.2-2.2 4.8-2.2 7.9-.1zm-67.2 7.2l3.2.1v17H205v-16.9l4.8-.3c3.6-.2 77.8-.1 94 .1zm-90.7 35.8c0 1 .1 33.6.2 72.6.1 46.6-.1 70.7-.8 70.7-.5 0-3.9-.9-7.5-2.1-5.2-1.6-23.8-5.9-25.6-5.9-.3 0-.4-26.3-.3-58.4l.1-58.3 2.3-4.9c4.8-10.2 13.2-15.4 24.8-15.4 5.7 0 6.7.3 6.8 1.7zm68.5 79.8c0 90.9.4 86.6-7.4 97.4-6.3 8.9-9.3 18-9.8 30-.7 18.1-1.9 21.1-8.3 21.1s-7.9-3.7-8.6-20.2c-.5-13.1-3.2-21.7-9.7-30.9-7.8-11.2-7.3-4.2-7.4-95.4 0-45.1.1-82.3.3-82.8.3-.4 11.8-.6 25.6-.5l25.2.3.1 81zm37.1-78.7c5.5 2.9 9.9 7.7 12.1 13.2 1.5 4.1 1.7 9.7 1.7 62.9v58.4l-5.8 1.4c-3.3.7-10.6 2.7-16.4 4.4-5.8 1.6-10.8 2.8-11.1 2.4-.6-.6-1-143.5-.3-144.9.8-1.7 15.4 0 19.8 2.2zM35.4 248.2c.3 2.2.7 4.2 1 4.6.2.4.7 3.6 1.1 7.2.4 3.6.9 6.8 1.1 7.1.7 1.2 1.5 32.9.9 34.9-.8 2.6-6.7 6-9.4 5.5-4.3-.8-8.5-4.1-10.9-8.5-2.2-4.2-2.4-5.2-1.8-16 .7-15.2 2.8-26.6 7.7-41.9 2.3-6.9 4.4-13 4.7-13.5.5-1 4.7 14.3 5.6 20.6zm19.8-5.3c1.8 1.5 8.7 6.9 15.3 11.8 19.2 14.4 22.4 18.5 23.2 29.7.3 4.9 0 6.7-1.6 9.3-2.3 3.7-5.7 6.1-9.7 7.1-3.3.8-24 .9-24.7.2-.2-.3-.7-7.9-1-17-.6-15.3-2.6-33-4.7-40.8-.4-1.7-.7-3.2-.5-3.2.3 0 1.9 1.3 3.7 2.9zM162 368c0 58.5-.3 74-1.2 74-1.4 0-12.6-1.7-17.3-2.5-4.3-.8-18.6-4.5-21-5.4-13.6-5.4-21.9-10.3-28.8-17C83.1 407 78.1 395.8 77.3 380c-1.7-30.6 16.8-51.5 70.2-79.2 7.2-3.7 13.3-6.7 13.8-6.8.4 0 .7 33.3.7 74zm-78.2-45c-3.7 3.8-7.2 7-7.6 7-.5 0-1.6-1.5-2.5-3.3-.9-1.7-2.4-4.2-3.3-5.5l-1.6-2.2 5.3-.1c3 0 7.4-.6 9.9-1.3 2.5-.8 5-1.4 5.5-1.5.6 0-2 3-5.7 6.9zm119 59.2c9.1 2.8 10.3 3.4 10.7 5.7 1.3 6.5 4.1 13.2 8.6 20.1 7 10.9 8 14 8.4 25 .5 10.7 1 14.7 2.7 20 1.4 4.5 5.4 10.5 8.2 12.3 9.6 6.3 26.3 4.5 32.7-3.6 5-6.3 6.9-14 7.4-28.7.2-9.9 1.8-15.1 6.6-22.2 5.2-7.6 9.9-17.6 9.9-21 0-1.5.5-3 1.1-3.3 1.4-.9 30.9-9.5 32.4-9.5 1.9 0 1.7 93.8-.1 100.1-2 6.7-8.3 13.3-15 15.8-5.3 2-7.4 2.1-60.9 2.1h-55.4l-5.3-2.3c-2.9-1.3-7-4.2-9-6.5-6.5-7.2-6.7-8.8-6.7-61.6 0-25.8.2-47.2.4-47.7.6-.9 10.1 1.2 23.3 5.3zM73.1 428.3c3.5 2.7 4.6 8.1 2.4 11.7-.9 1.5-5.9 3.9-7.6 3.6-5.3-.9-7.9-3.9-7.9-9.2 0-5.6 8.6-9.6 13.1-6.1z"/><path d="M437 359.7c-9.5 1.5-16.6 8.5-18.9 18.6l-.6 2.9-2.5-2.3c-6.4-5.6-16.9-7.5-24.5-4.3-8.4 3.5-21.5 19.4-25.7 31.1-3.7 10.5-.2 21.1 8.9 27.2l3.9 2.6-4.7 3.5c-9.1 6.6-12 18.6-7.2 29.3 3.4 7.5 11.3 18.6 15.8 22.3 11.3 9.3 22.6 10 32.8 2.1l3.7-2.9v2.4c0 2.7 3.3 9.3 6.4 12.7 1.1 1.3 4.3 3.4 7.1 4.7 6.4 3 16.8 2.7 27-.9 14.3-4.9 20.5-9.4 24.1-17.2 2.7-5.8 3-11.5.9-17.5-.8-2.3-1.5-4.3-1.5-4.4 0-.1 2.6-.2 5.8-.2 10.1-.1 17.4-5.3 21.4-15.3 1.9-4.8 2.2-7.6 2.2-18.6 0-15.1-1.9-21.7-7.8-27.4-4.1-4-12.2-7-17.6-6.5-4.1.4-5.2-1-2.9-3.3.6-.6 1.3-4 1.5-7.5.6-13.1-6.1-20.8-24.3-27.8-2.9-1.1-5.3-1.8-5.3-1.5 0 .2-1.1 0-2.5-.5-2.9-1.1-11.8-1.8-15.5-1.3zm14.5 18.5c7.7 1.9 14.2 5.7 15.5 8.8 1 2.5.9 3.6-1.3 8.2-1.3 2.9-4.1 7.1-6 9.2l-3.6 4-4.8-2.6c-2.6-1.5-6.6-3-8.8-3.3-2.2-.4-4.8-.9-5.9-1.1-2.7-.5-2.9-.8-3.2-7.5-.3-7 1.7-14.8 4.3-16.7 1.8-1.3 6.3-1 13.8 1zm-46.1 15c4 3.3 9.6 11.2 9.6 13.5 0 .8-1.5 2.7-3.4 4.3-1.8 1.7-4.6 5.5-6.2 8.5-1.6 3-3.3 5.6-3.9 5.9-1.7.6-11.7-2.3-15.2-4.5-1.9-1.2-4.1-3.2-5-4.5-1.5-2.3-1.4-2.8 1.6-8.9 1.8-3.5 5.5-8.9 8.3-12 6-6.6 8.5-7 14.2-2.3zm37.2 27.3c10.2 4.6 12.6 19.6 4.3 27.2-14.8 13.6-36.3-4.3-25.8-21.3 4.4-7.2 13.1-9.6 21.5-5.9zm49.1-.2c2.3 2.3 3.2 7.7 2.9 17-.4 10.2-1.8 14.6-5 14.8-7.7.6-11.4-.1-17.8-3.1-4.5-2.1-4.6-2.2-3.7-5.3 1.2-4.1 1.2-13.9 0-17-.9-2.2-.6-2.6 3.7-4.6 8.4-3.8 17.1-4.6 19.9-1.8zm-87.1 29.9c1 2.4 3.9 6.5 6.3 9.1l4.5 4.9-2.3 4.4c-3.3 6.1-10.3 12.4-13.9 12.4-5 0-16-12.8-18.3-21.3-.9-3.3-.8-4.2.8-5.9 3.4-3.7 12.2-7.6 17.9-7.7 2.7-.1 3.3.4 5 4.1zm53 14.6c5.7 4.5 11.3 15.8 9.8 19.6-1.8 4.6-21.5 11.8-28 10.2-4.3-1.1-7-10.3-5.8-19.6l.6-4.8 5.7-1c6.1-1.1 12.6-3.6 13.6-5.2.9-1.4 1.7-1.2 4.1.8z"/></svg>